<svg width="90" height="90" viewBox="0 0 90 90" fill="none" xmlns="http://www.w3.org/2000/svg">
<path d="M15.6801 27.3341C15.6801 16.8659 15.6801 11.6318 18.8828 8.37974C22.0856 5.12769 27.2404 5.12769 37.55 5.12769H52.13C62.4396 5.12769 67.5944 5.12769 70.7972 8.37974C74 11.6318 74 16.8659 74 27.3341V56.9427C74 67.4109 74 72.6451 70.7972 75.8971C67.5944 79.1492 62.4396 79.1492 52.13 79.1492H37.55C27.2404 79.1492 22.0856 79.1492 18.8828 75.8971C15.6801 72.6451 15.6801 67.4109 15.6801 56.9427V27.3341Z" fill="white" stroke="#1C1C1C" stroke-width="3"/>
<path d="M74 56.7184H29.9788C26.5673 56.7184 24.8615 56.7184 23.462 57.1309C19.6641 58.2502 16.6977 61.5132 15.6801 65.6907" stroke="#1C1C1C" stroke-width="3"/>
<path d="M43.7184 84.8144V69.0554H29.1384V84.8144C29.1384 86.0443 29.1384 86.6593 29.4842 86.9079C29.8299 87.1564 30.3028 86.8814 31.2485 86.3314L35.7764 83.6978C36.0963 83.5117 36.2563 83.4187 36.4284 83.4187C36.6005 83.4187 36.7605 83.5117 37.0805 83.6978L41.6084 86.3314C42.5541 86.8814 43.0269 87.1564 43.3727 86.9079C43.7184 86.6593 43.7184 86.0443 43.7184 84.8144Z" fill="white" stroke="#1C1C1C" stroke-width="3"/>
<path d="M25.7738 69.0554H65.0276" stroke="#1C1C1C" stroke-width="3" stroke-linecap="round"/>
<path d="M37.1574 20.2871L38.6403 20.5133L38.6574 20.4008V20.2871H37.1574ZM58.2236 41.3533L59.7236 41.3533L59.7236 41.3533L58.2236 41.3533ZM37.5922 17.6383L39.0128 18.12L39.0128 18.12L37.5922 17.6383ZM32.5778 35.0957H34.0778C34.0778 34.4995 33.7247 33.9599 33.1784 33.7211L32.5778 35.0957ZM58.2236 35.0957L57.6231 33.7211C57.0767 33.9599 56.7236 34.4995 56.7236 35.0957L58.2236 35.0957ZM50.5104 23.6922C49.9236 24.277 49.922 25.2267 50.5068 25.8135C51.0916 26.4003 52.0413 26.4019 52.6281 25.8171L50.5104 23.6922ZM37.0501 23.5722C37.6359 24.158 38.5856 24.158 39.1714 23.5722C39.7572 22.9864 39.7572 22.0367 39.1714 21.4509L37.0501 23.5722ZM49.0644 47.1807C48.236 47.1807 47.5644 47.8523 47.5644 48.6807C47.5644 49.5091 48.236 50.1807 49.0644 50.1807V47.1807ZM41.737 50.1807C42.5655 50.1807 43.237 49.5091 43.237 48.6807C43.237 47.8523 42.5655 47.1807 41.737 47.1807V50.1807ZM36.2415 16.0394C30.3546 16.0394 25.5823 20.8117 25.5823 26.6986H28.5823C28.5823 22.4685 32.0114 19.0394 36.2415 19.0394V16.0394ZM54.5599 19.0394C58.79 19.0394 62.2192 22.4685 62.2192 26.6986H65.2192C65.2192 20.8117 60.4469 16.0394 54.5599 16.0394V19.0394ZM39.9052 47.1807C38.1357 47.1807 36.9595 47.1775 36.085 47.06C35.2537 46.9482 34.9229 46.7584 34.7115 46.547L32.5902 48.6683C33.4519 49.53 34.5212 49.8767 35.6853 50.0332C36.8061 50.1839 38.2205 50.1807 39.9052 50.1807V47.1807ZM31.0778 41.3533C31.0778 43.038 31.0746 44.4524 31.2253 45.5733C31.3818 46.7373 31.7285 47.8066 32.5902 48.6683L34.7115 46.547C34.5002 46.3356 34.3103 46.0049 34.1986 45.1735C34.081 44.299 34.0778 43.1228 34.0778 41.3533H31.0778ZM56.7236 41.3533C56.7236 43.1228 56.7205 44.299 56.6029 45.1735C56.4911 46.0049 56.3013 46.3356 56.0899 46.547L58.2112 48.6683C59.0729 47.8066 59.4196 46.7373 59.5761 45.5733C59.7268 44.4524 59.7236 43.038 59.7236 41.3533H56.7236ZM50.8963 50.1807C52.5809 50.1807 53.9953 50.1839 55.1162 50.0332C56.2802 49.8767 57.3495 49.53 58.2112 48.6683L56.0899 46.547C55.8785 46.7584 55.5478 46.9482 54.7164 47.06C53.842 47.1775 52.6657 47.1807 50.8963 47.1807V50.1807ZM36.2415 19.0394C36.6268 19.0394 37.0045 19.0677 37.3729 19.1221L37.8116 16.1544C37.2984 16.0785 36.7741 16.0394 36.2415 16.0394V19.0394ZM45.4007 10.5438C41.1125 10.5438 37.4751 13.3131 36.1717 17.1565L39.0128 18.12C39.9159 15.4569 42.4368 13.5438 45.4007 13.5438V10.5438ZM36.1717 17.1565C35.8378 18.141 35.6574 19.1945 35.6574 20.2871H38.6574C38.6574 19.5265 38.7828 18.7982 39.0128 18.12L36.1717 17.1565ZM54.5599 16.0394C54.0274 16.0394 53.5031 16.0785 52.9899 16.1544L53.4285 19.1221C53.797 19.0677 54.1747 19.0394 54.5599 19.0394V16.0394ZM45.4007 13.5438C48.3646 13.5438 50.8856 15.4569 51.7887 18.12L54.6298 17.1565C53.3264 13.3131 49.6889 10.5438 45.4007 10.5438V13.5438ZM51.7887 18.12C52.0187 18.7982 52.144 19.5265 52.144 20.2871H55.144C55.144 19.1945 54.9636 18.141 54.6298 17.1565L51.7887 18.12ZM34.0778 41.3533V35.0957H31.0778V41.3533H34.0778ZM33.1784 33.7211C30.4701 32.5379 28.5823 29.837 28.5823 26.6986H25.5823C25.5823 31.0719 28.2158 34.8267 31.9773 36.4702L33.1784 33.7211ZM56.7236 35.0957L56.7236 41.3533L59.7236 41.3533L59.7236 35.0957L56.7236 35.0957ZM62.2192 26.6986C62.2192 29.837 60.3313 32.5379 57.6231 33.7211L58.8242 36.4702C62.5857 34.8267 65.2192 31.0719 65.2192 26.6986H62.2192ZM53.644 20.2871C52.144 20.2871 52.144 20.2865 52.144 20.2859C52.144 20.2857 52.144 20.2851 52.144 20.2847C52.144 20.2839 52.144 20.2832 52.144 20.2825C52.144 20.2811 52.144 20.2798 52.1441 20.2786C52.1441 20.2764 52.1441 20.2746 52.1441 20.2734C52.1441 20.271 52.1442 20.2708 52.1441 20.2726C52.144 20.2762 52.1436 20.2879 52.1425 20.3072C52.1403 20.3458 52.1351 20.414 52.1234 20.5069C52.0999 20.6933 52.0507 20.9742 51.9488 21.3116C51.7453 21.9852 51.3368 22.8686 50.5104 23.6922L52.6281 25.8171C53.8765 24.5729 54.5054 23.2224 54.8206 22.1793C54.978 21.6583 55.0585 21.21 55.0998 20.8819C55.1206 20.7175 55.1316 20.5821 55.1374 20.4814C55.1404 20.431 55.142 20.3892 55.1429 20.3566C55.1434 20.3403 55.1437 20.3263 55.1438 20.3147C55.1439 20.3089 55.144 20.3037 55.144 20.2991C55.144 20.2968 55.144 20.2946 55.144 20.2927C55.144 20.2917 55.144 20.2907 55.144 20.2898C55.144 20.2893 55.144 20.2887 55.144 20.2884C55.144 20.2878 55.144 20.2871 53.644 20.2871ZM37.1574 20.2871C35.6746 20.061 35.6744 20.0618 35.6743 20.0627C35.6743 20.063 35.6741 20.0638 35.6741 20.0644C35.6739 20.0655 35.6737 20.0667 35.6735 20.0679C35.6732 20.0702 35.6728 20.0727 35.6725 20.0752C35.6717 20.0802 35.671 20.0856 35.6702 20.0913C35.6687 20.1026 35.6672 20.1151 35.6656 20.1288C35.6624 20.1563 35.6593 20.1886 35.6565 20.2253C35.6511 20.2988 35.6473 20.3908 35.6488 20.4988C35.652 20.7144 35.6766 20.9967 35.7536 21.3233C35.9106 21.9884 36.277 22.7991 37.0501 23.5722L39.1714 21.4509C38.823 21.1025 38.7128 20.8009 38.6734 20.6343C38.6523 20.5449 38.6489 20.4814 38.6485 20.4552C38.6483 20.4422 38.6489 20.4393 38.6482 20.4481C38.6479 20.4525 38.6473 20.46 38.646 20.4707C38.6454 20.4761 38.6447 20.4823 38.6437 20.4894C38.6432 20.4929 38.6427 20.4967 38.6421 20.5007C38.6419 20.5026 38.6416 20.5047 38.6413 20.5068C38.6411 20.5078 38.6409 20.5089 38.6408 20.51C38.6407 20.5105 38.6406 20.5113 38.6405 20.5116C38.6404 20.5124 38.6403 20.5133 37.1574 20.2871ZM50.8963 47.1807H49.0644V50.1807H50.8963V47.1807ZM41.737 47.1807H39.9052V50.1807H41.737V47.1807Z" fill="#1C1C1C"/>
<path d="M32.5779 41.3534H47.2326M58.2237 41.3534H54.56" stroke="#1C1C1C" stroke-width="3" stroke-linecap="round" stroke-linejoin="round"/>
</svg>
